<svg viewBox="0 0 166 34" fill="none" xmlns="http://www.w3.org/2000/svg"><path d="M11.184 25.356l10.684-8.64-10.684-8.655L1.85.7A.83.83 0 00.62.913a.817.817 0 00-.12.446v31.646a.469.469 0 00.266.43.477.477 0 00.506-.055l9.912-8.023zm33.584 7.576v-17.92l-11.777 9.534 10.89 8.816a.547.547 0 00.887-.43zm-20.932-2.517l20.932-16.75V1.194a.656.656 0 00-.372-.606.669.669 0 00-.71.079l-29.374 23.58 7.621 6.168a1.508 1.508 0 001.903 0z" fill="#6E5FFB"></path><path fill-rule="evenodd" clip-rule="evenodd" d="M77.105 18.85c0-2.795-.713-4.282-2.911-4.282-2.229 0-3.388 1.487-3.388 4.493v7.195h-2.882V18.85c0-2.825-.713-4.281-2.911-4.281-2.23 0-3.388 1.516-3.388 4.493v7.195H58.77V12.131h2.856v1.517a4.741 4.741 0 013.862-1.784 4.667 4.667 0 012.661.617 4.65 4.65 0 011.856 1.998 5.266 5.266 0 014.695-2.616c3.149 0 5.26 1.962 5.26 6.392v8h-2.857v-7.406h.003zm17.65 5.738a5.932 5.932 0 01-4.725 2.05 7.426 7.426 0 01-5.297-2.13 7.388 7.388 0 01-2.202-5.257 7.371 7.371 0 012.202-5.257 7.412 7.412 0 015.297-2.131 6.011 6.011 0 014.724 2.082V12.13h2.857v14.122h-2.857v-1.664zm-4.725-10.02a4.72 4.72 0 00-2.63.77 4.686 4.686 0 00-.763 7.233 4.714 4.714 0 005.14 1.039 4.707 4.707 0 002.12-1.73c.52-.773.798-1.683.798-2.614a4.585 4.585 0 00-1.333-3.337 4.605 4.605 0 00-3.332-1.361zm51.222-2.438h2.857v1.694c1.367-1.634 2.763-1.963 5.494-1.963v2.74c-4.665 0-5.494 1.903-5.494 4.341v7.314h-2.857V12.13zm16.845 14.51a7.422 7.422 0 01-4.104-1.27 7.389 7.389 0 01-2.706-3.33 7.374 7.374 0 011.645-8.037 7.428 7.428 0 018.073-1.57 7.402 7.402 0 013.314 2.73 7.374 7.374 0 01-.955 9.337 7.404 7.404 0 01-5.267 2.14zm.031-12.075a4.718 4.718 0 00-4.431 2.833 4.688 4.688 0 00.966 5.16 4.723 4.723 0 007.283-.695 4.703 4.703 0 00.787-2.63 4.665 4.665 0 00-1.344-3.275 4.687 4.687 0 00-3.261-1.393zm-20.8 10.594l-.576-1.221a6.818 6.818 0 01-.493.022c-1.515 0-1.868-.774-1.868-2.38v-6.745h2.857V12.13h-2.857V7.356l-.943.767-1.939 1.583v2.422h-2.234v2.705h2.229v7.073c0 2.438.623 4.729 4.1 4.729a7.12 7.12 0 002.229-.33v-.072l-.505-1.074zm-24.086-1.02l-1.492-1.832a4.886 4.886 0 01-3.807 1.743 4.578 4.578 0 01-3.003-1.068 4.555 4.555 0 01-1.572-2.766h11.558c.038-.328.058-.657.059-.987a7.18 7.18 0 00-2.061-5.202 7.238 7.238 0 00-10.339.02 7.184 7.184 0 00-2.039 5.211 7.402 7.402 0 001.299 4.15 7.455 7.455 0 0011.543.91l-.146-.18zm-5.447-9.662a4.244 4.244 0 012.788.95 4.216 4.216 0 011.49 2.535h-8.618a4.415 4.415 0 011.554-2.503 4.44 4.44 0 012.784-.975l.002-.007zm12.447 1.494c0-.773.623-1.487 2.05-1.487a5.362 5.362 0 012.117.451l2.197-1.79a7.941 7.941 0 00-4.339-1.277c-2.941 0-4.843 1.843-4.843 4.43 0 5.084 7.34 3.36 7.34 6.154 0 .951-.832 1.605-2.348 1.605a6.235 6.235 0 01-3.306-.995l-1.767 1.444-.391.318a8.916 8.916 0 005.376 1.82c3.179 0 5.229-1.665 5.229-4.37 0-5.085-7.309-3.628-7.309-6.303" fill="#000"></path></svg>